<svg xmlns="http://www.w3.org/2000/svg" fill="none" viewBox="0 0 16 16"><path stroke="#000" d="M4 3.5h2.902a.5.5 0 0 1 .34.133l3.098 2.866c.102.095.16.228.16.367V13A1.5 1.5 0 0 1 9 14.5H4A1.5 1.5 0 0 1 2.5 13V5A1.5 1.5 0 0 1 4 3.5Z"/><path stroke="#000" d="M6.5 3.429V6a1 1 0 0 0 1 1h3.05"/><path fill="#000" d="M10.968 1.003Q10.983 1 11 1q.116.002.214.05a1 1 0 0 1 .368.216l3.098 2.866c.204.19.32.456.32.734V11a2 2 0 0 1-2 2h-2v-1h2a1 1 0 0 0 1-1V5.5h-2A1.5 1.5 0 0 1 10.5 4V2H8a1 1 0 0 0-1 1H6a2 2 0 0 1 1.796-1.99L8 1h2.902zM11.5 4a.5.5 0 0 0 .5.5h1.604L11.5 2.553z"/></svg>
