<svg xmlns="http://www.w3.org/2000/svg" fill="none" viewBox="0 0 16 16"><path stroke="#000" d="M8 6.179A1.821 1.821 0 1 1 8 9.82a1.821 1.821 0 0 1 0-3.64Z"/><path fill="#000" d="M8 1.5V1zm1.06.919.495-.07zm2.136.886.3.4zm1.4.1.354-.354zm.1 1.399.399.3zm.885 2.136.07-.495zM14.5 8h.5zm-.919 1.06.07.495zm-.886 2.136.4-.3zm-.098 1.4.353.353zm-1.4.1-.3.4zm-2.137.885.495.07zM8 14.5v.5zm-1.06-.919-.495.07zm-2.136-.886.3.4zm-1.4-.098-.353.353zm-.1-1.4.4.3zM2.42 9.06l-.07.495zM1.5 8H1zm.919-1.06-.07-.495zm.886-2.136-.4.3zm.1-1.4L3.05 3.05zm1.399-.1.3-.4zM6.94 2.42l-.495-.07zm-.72 1.292.193.462zm.647-.778-.495-.071zm-1.648.683.3-.4zM3.71 6.22l-.461-.192zm-.778.647.07.495zm.778 2.912.462-.192zm-.78-.647-.07.495zm3.936 3.934.495-.07zm-.646-.778-.193.461zm4.56.095-.301.4zm-1.002-.095-.192-.462zm2.509-6.067-.462.192zm.778.646-.07.495zM9.78 3.71l-.192.462zm1.001-.094-.3-.4zM5.22 12.384l-.3-.4zm7.848-3.251.07.495zm-.78.646-.46-.192zm-3.154 3.288-.495-.07zm3.25-2.287.4-.3zM8 1.5V2a.57.57 0 0 1 .565.49l.495-.071.495-.07A1.57 1.57 0 0 0 8 1zm1.06.919-.495.07.072.513.495-.07.495-.07-.072-.513zm1.72 1.198.3.4.416-.312-.3-.4-.3-.4-.416.312zm.416-.312.3.4a.57.57 0 0 1 .747.053l.354-.354.353-.353a1.57 1.57 0 0 0-2.054-.146zm1.4.1-.353.353c.2.2.223.518.052.746l.4.3.4.3a1.57 1.57 0 0 0-.145-2.053zm.1 1.399-.4-.3-.312.414.4.3.4.301.311-.415zm.37 2.063-.07.495.514.073.071-.495.07-.495-.514-.073zm.515.073-.07.495A.57.57 0 0 1 14 8h1a1.57 1.57 0 0 0-1.348-1.555zM14.5 8H14a.57.57 0 0 1-.49.565l.071.495.07.495A1.57 1.57 0 0 0 15 8zm-.919 1.06-.07-.495-.514.073.07.495.07.495.514-.073zm-1.198 1.72-.4.3.313.416.4-.3.4-.3-.313-.416zm.312.416-.4.3a.57.57 0 0 1-.052.746l.354.354.353.353a1.57 1.57 0 0 0 .145-2.053zm-.098 1.4-.354-.354a.57.57 0 0 1-.747.053l-.3.4-.3.4a1.57 1.57 0 0 0 2.054-.146zm-1.4.1.3-.4-.417-.313-.3.4-.3.4.416.312zm-2.064.37-.495-.07-.073.515.495.07.495.07.073-.514zm-.073.515-.495-.07A.57.57 0 0 1 8 14v1a1.57 1.57 0 0 0 1.555-1.348zM8 14.5V14a.57.57 0 0 1-.565-.49l-.495.071-.495.07A1.57 1.57 0 0 0 8 15zm-1.06-.919.495-.07-.073-.515-.495.07-.495.071.073.515zm-1.72-1.197-.3-.4-.416.312.3.4.301.399.415-.312zm-.415.311-.3-.4a.57.57 0 0 1-.746-.052l-.354.354-.353.354a1.57 1.57 0 0 0 2.053.144zm-1.4-.098.354-.354a.57.57 0 0 1-.053-.747l-.4-.3-.4-.3a1.57 1.57 0 0 0 .146 2.054zm-.1-1.4.4.3.313-.417-.4-.3-.4-.3-.312.416zm-.372-2.065.07-.495-.513-.072-.07.495-.07.495.513.072zM2.42 9.06l.07-.495A.57.57 0 0 1 2 8H1a1.57 1.57 0 0 0 1.348 1.555zM1.5 8H2a.57.57 0 0 1 .49-.565l-.071-.495-.07-.495A1.57 1.57 0 0 0 1 8zm.919-1.06.07.495.514-.073-.07-.495-.071-.495-.514.073zm1.197-1.72.4-.3-.311-.415-.4.3-.4.3.311.415zm-.311-.415.4-.3a.57.57 0 0 1 .053-.747l-.354-.354-.353-.353a1.57 1.57 0 0 0-.146 2.054zm.1-1.4.353.353a.57.57 0 0 1 .746-.052l.3-.4.3-.4a1.57 1.57 0 0 0-2.053.145zm1.399-.1-.3.4.414.312.3-.4.3-.4-.414-.311zm2.063-.371.495.07.073-.513-.495-.071-.495-.07-.073.513zm.073-.514.495.07A.57.57 0 0 1 8 2V1a1.57 1.57 0 0 0-1.555 1.348zm-.72 1.292.193.462c.458-.191.868-.604.949-1.17l-.495-.07-.495-.071c-.02.145-.139.302-.344.388zm-1-.096-.3.4c.454.341 1.03.35 1.494.157L6.22 3.71l-.192-.461c-.2.083-.389.056-.51-.034zM3.71 6.22l.462.193c.193-.464.184-1.04-.157-1.495l-.4.3-.4.3c.09.121.117.31.034.51zm-.778.647.07.495c.566-.08.979-.491 1.17-.95L3.71 6.22l-.461-.192c-.086.205-.243.323-.388.344zm.778 2.912.462-.192c-.191-.459-.604-.87-1.17-.95l-.071.495-.07.495c.145.021.302.14.388.345zm-.094 1.001.4.3c.34-.454.35-1.03.156-1.493l-.462.192-.461.193c.083.2.057.388-.033.508zm3.25 2.286.495-.07c-.08-.566-.491-.979-.95-1.17l-.191.462-.193.461c.205.086.323.243.344.388zm3.913-.683.3-.4c-.454-.341-1.03-.35-1.493-.157l.192.462.192.461c.2-.083.389-.056.509.034zm1.508-6.162-.462.192c.191.458.604.868 1.17.949l.07-.495.071-.495c-.145-.02-.302-.139-.388-.344zM9.779 3.71l-.192.462c.463.193 1.039.184 1.493-.156l-.3-.4-.3-.4c-.12.09-.309.116-.508.033zm-3.558 8.577.192-.462c-.464-.193-1.04-.184-1.495.158l.3.4.301.4c.12-.091.31-.118.51-.035zm6.846-3.155-.07-.495c-.567.08-.98.49-1.17.949l.46.192.462.192c.086-.205.243-.323.388-.343zm-3.288 3.155-.192-.462c-.459.191-.87.604-.95 1.17l.496.07.495.071c.02-.145.138-.302.343-.388zm2.605-7.07-.4-.3c-.342.455-.35 1.031-.158 1.495l.462-.192.461-.193c-.083-.2-.056-.389.034-.509zm-.096 4.56-.462-.191c-.193.463-.184 1.039.157 1.493l.4-.3.4-.3c-.09-.12-.117-.309-.034-.509zM9.132 2.933l-.495.07c.08.567.491.98.95 1.17l.192-.46.193-.462c-.206-.086-.324-.243-.345-.388z"/></svg>
