<svg xmlns="http://www.w3.org/2000/svg" fill="none" viewBox="0 0 16 16"><path fill="#000" d="M13 1a2 2 0 0 1 2 2v10a2 2 0 0 1-2 2H3a2 2 0 0 1-2-2V3a2 2 0 0 1 2-2zm.759 5.083c-.64-.583-1.71-.641-2.438-.174-.38.245-.638.613-.686 1.038-.05.43.123.846.46 1.153.348.317.82.407 1.113.47.358.078.539.129.651.232.125.114.148.222.139.3-.01.081-.064.202-.232.31-.372.239-.942.188-1.225-.07a.5.5 0 1 0-.673.738c.64.583 1.71.641 2.439.174.38-.245.636-.614.685-1.04.05-.428-.123-.844-.459-1.15-.348-.318-.821-.409-1.114-.472-.358-.078-.538-.129-.65-.232-.126-.114-.149-.222-.14-.3.01-.081.064-.202.232-.31.372-.239.942-.187 1.225.071a.5.5 0 0 0 .673-.738m-8.525-.44a.5.5 0 0 0-.69.158l-.81 1.29-.81-1.29a.5.5 0 0 0-.848.531l1.068 1.701-1.068 1.701a.5.5 0 0 0 .848.532l.81-1.292.81 1.292a.5.5 0 0 0 .848-.532l-1.068-1.7 1.068-1.702a.5.5 0 0 0-.158-.69m2.204-.077a.5.5 0 0 0-.5.5V9a1.5 1.5 0 0 0 1.5 1.5h.851a.5.5 0 0 0 0-1h-.851a.5.5 0 0 1-.5-.5V6.066a.5.5 0 0 0-.5-.5"/></svg>
